<svg width="310" height="169" viewBox="0 0 310 169" fill="none" xmlns="http://www.w3.org/2000/svg">
<rect width="310" height="169" rx="20" fill="white" fill-opacity="0.05"/>
<path fill-rule="evenodd" clip-rule="evenodd" d="M184.252 169H290C301.046 169 310 160.046 310 149V130.545C306.95 135.127 303.423 139.441 299.443 143.422H299.432C289.833 153.022 278.302 159.984 265.722 163.961C273.354 153.214 279.345 137.965 282.777 120.09V120.08C283.078 118.501 283.358 116.907 283.623 115.287C285.472 107.287 291.037 92.0178 306.711 91.2494H310V77.7506H306.176C306.176 77.7506 288.483 76.8992 283.675 55.675C283.436 54.1694 283.177 52.6794 282.902 51.2049L282.892 51.1307C282.864 50.9175 282.837 50.7077 282.813 50.4936H282.767C279.117 31.4604 272.565 15.4021 264.221 4.58238C277.383 8.47105 289.443 15.5994 299.422 25.5781C303.411 29.5675 306.946 33.8901 310 38.4831V20C310 8.95431 301.046 0 290 0H184.252C158.73 17.0251 141.358 45.3069 139.228 77.7506H139V91.2494H139.228C141.358 123.693 158.73 151.975 184.252 169ZM218.196 146.89C224.462 159.677 232.302 167.309 239.171 167.309L239.161 167.304C246.029 167.304 253.869 159.672 260.135 146.885C262.679 141.693 264.87 135.811 266.672 129.451C272.497 95.9376 253.999 91.6803 246.979 91.2494H205.964C206.665 112.261 211.036 132.275 218.196 146.89ZM260.146 23.6675C253.879 10.88 246.04 3.24808 239.171 3.24808V3.24289C232.302 3.24289 224.462 10.8749 218.196 23.6623C211.213 37.919 206.888 57.3053 206.026 77.7454H245.957V77.4859C245.957 77.4859 273.857 79.4536 265.39 36.8235C263.863 32.0938 262.108 27.6756 260.146 23.6675ZM213.269 5.709C201.473 9.77419 190.664 16.4976 181.583 25.5781H181.578C167.446 39.7154 159.014 58.0373 157.447 77.7506H192.512C193.665 47.6796 201.634 21.5233 213.269 5.709ZM192.465 91.2494H157.457C159.025 110.963 167.451 129.285 181.588 143.422C190.29 152.129 200.58 158.665 211.805 162.772C200.772 146.511 193.353 120.687 192.465 91.2494Z" fill="#49DF82" fill-opacity="0.06"/>
</svg>
